<svg xmlns="http://www.w3.org/2000/svg" xmlns:xlink="http://www.w3.org/1999/xlink" version="1.1" x="0px" y="0px" viewBox="0 0 100 125" enable-background="new 0 0 100 100" xml:space="preserve"><path d="M92.564,7.11c-0.069-0.636-0.383-1.207-0.883-1.608c-0.996-0.798-2.572-0.623-3.369,0.369l-46.56,58.063L26.226,49.955  c-0.948-0.851-2.535-0.765-3.385,0.179c-0.884,0.982-0.803,2.501,0.18,3.386l16.708,15.039c0.606,0.549,1.391,0.85,2.207,0.85  c0.088,0,0.179-0.004,0.259-0.01c0.896-0.072,1.736-0.521,2.304-1.227l47.553-59.3C92.452,8.372,92.635,7.747,92.564,7.11z"/><path d="M86.82,33.815c-1.321,0-2.397,1.076-2.397,2.398v48.813c0,2.855-2.323,5.18-5.179,5.18h-61.85  c-2.855,0-5.179-2.323-5.179-5.18V23.179c0-2.855,2.323-5.18,5.179-5.18h43.952c1.322,0,2.396-1.074,2.396-2.396  s-1.074-2.396-2.396-2.396H17.395c-5.499,0-9.973,4.474-9.973,9.973v61.849c0,5.498,4.474,9.973,9.973,9.973h61.85  c5.499,0,9.974-4.475,9.974-9.973V36.214C89.218,34.892,88.145,33.815,86.82,33.815z"/></svg>