<svg xmlns="http://www.w3.org/2000/svg" xmlns:xlink="http://www.w3.org/1999/xlink" version="1.1" x="0px" y="0px" viewBox="0 0 100 125" enable-background="new 0 0 100 100" xml:space="preserve"><path d="M85.029,5H14.97C9.473,5,5,9.473,5,14.97V85.03C5,90.527,9.473,95,14.97,95h70.059C90.527,95,95,90.527,95,85.03V14.97  C95,9.473,90.527,5,85.029,5z M90.208,85.03c0,2.854-2.323,5.178-5.179,5.178H14.97c-2.854,0-5.178-2.323-5.178-5.178V14.97  c0-2.854,2.323-5.178,5.178-5.178h70.059c2.854,0,5.179,2.323,5.179,5.178V85.03z"/></svg>